<?xml version="1.0" ?><svg data-name="Слой 1" id="Слой_1" viewBox="0 0 128 128" xmlns="http://www.w3.org/2000/svg"><title/><path d="M81,62H73a2,2,0,0,0,0,4h5.66A6,6,0,1,1,73,58a5.92,5.92,0,0,1,2.59.59A2,2,0,0,0,77.32,55,9.9,9.9,0,0,0,73,54,10,10,0,1,0,83,64,2,2,0,0,0,81,62Z"/><path d="M38,70H28V56a2,2,0,0,0-4,0V72a2,2,0,0,0,2,2H38a2,2,0,0,0,0-4Z"/><path d="M50,54A10,10,0,1,0,60,64,10,10,0,0,0,50,54Zm0,16a6,6,0,1,1,6-6A6,6,0,0,1,50,70Z"/><path d="M96,54a10,10,0,1,0,10,10A10,10,0,0,0,96,54Zm0,16a6,6,0,1,1,6-6A6,6,0,0,1,96,70Z"/><path d="M64,0a64,64,0,1,0,64,64A64.07,64.07,0,0,0,64,0Zm0,124a60,60,0,1,1,60-60A60.07,60.07,0,0,1,64,124Z"/></svg>